<?xml version="1.0" encoding="UTF-8" standalone="no"?>
<!-- Created with Inkscape (http://www.inkscape.org/) -->

<svg
   xmlns:dc="http://purl.org/dc/elements/1.1/"
   xmlns:cc="http://creativecommons.org/ns#"
   xmlns:rdf="http://www.w3.org/1999/02/22-rdf-syntax-ns#"
   xmlns:svg="http://www.w3.org/2000/svg"
   xmlns="http://www.w3.org/2000/svg"
   xmlns:xlink="http://www.w3.org/1999/xlink"
   xmlns:sodipodi="http://sodipodi.sourceforge.net/DTD/sodipodi-0.dtd"
   xmlns:inkscape="http://www.inkscape.org/namespaces/inkscape"
   sodipodi:docname="Logo SCOROBOTICS rev8 small no text.svg"
   inkscape:version="0.92.3 (unknown)"
   id="svg8"
   version="1.1"
   viewBox="0 0 211.87206 158.32115"
   height="158.32115mm"
   width="211.87207mm">
  <sodipodi:namedview
     inkscape:measure-end="0,0"
     inkscape:measure-start="0,0"
     inkscape:guide-bbox="true"
     showguides="false"
     inkscape:window-maximized="1"
     inkscape:window-y="0"
     inkscape:window-x="0"
     inkscape:window-height="735"
     inkscape:window-width="1280"
     showgrid="true"
     inkscape:current-layer="layer1"
     inkscape:document-units="mm"
     inkscape:cy="581.58908"
     inkscape:cx="214.47923"
     inkscape:zoom="0.25038762"
     inkscape:pageshadow="2"
     inkscape:pageopacity="0.0"
     borderopacity="1.0"
     bordercolor="#666666"
     pagecolor="#ffffff"
     id="base"
     inkscape:object-paths="true"
     fit-margin-top="2"
     fit-margin-left="2"
     fit-margin-right="2"
     fit-margin-bottom="2" />
  <defs
     id="defs2">
    <linearGradient
       inkscape:collect="always"
       id="linearGradient2246-6">
      <stop
         style="stop-color:#000000;stop-opacity:1;"
         offset="0"
         id="stop2242" />
      <stop
         style="stop-color:#000000;stop-opacity:0;"
         offset="1"
         id="stop2244" />
    </linearGradient>
    <inkscape:path-effect
       effect="mirror_symmetry"
       start_point="159.6136,24.413628"
       end_point="159.6136,238.6303"
       center_point="159.6136,131.52196"
       id="path-effect3696"
       is_visible="true"
       mode="free"
       discard_orig_path="false"
       fuse_paths="false"
       oposite_fuse="false" />
    <inkscape:path-effect
       effect="interpolate"
       id="path-effect3694"
       is_visible="true"
       trajectory="M 97.562418,141.72732 96.991055,248.48435"
       equidistant_spacing="true"
       steps="5" />
    <filter
       y="-0.2"
       height="1.4"
       inkscape:label="Rough and Dilate"
       inkscape:menu="Distort"
       inkscape:menu-tooltip="Create a turbulent contour around"
       style="color-interpolation-filters:sRGB"
       id="filter1406">
      <feMorphology
         radius="7"
         operator="dilate"
         result="result8"
         in="SourceGraphic"
         id="feMorphology1396" />
      <feComposite
         in2="result8"
         result="result10"
         in="SourceGraphic"
         operator="arithmetic"
         k1="0.5"
         k3="0.5"
         id="feComposite1398"
         k2="0"
         k4="0" />
      <feTurbulence
         result="result11"
         type="fractalNoise"
         numOctaves="3"
         baseFrequency="0.07"
         id="feTurbulence1400" />
      <feDisplacementMap
         result="result12"
         in2="result11"
         in="result10"
         xChannelSelector="R"
         scale="10"
         id="feDisplacementMap1402"
         yChannelSelector="A" />
      <feComposite
         operator="arithmetic"
         result="result13"
         in="SourceGraphic"
         in2="result12"
         k1="0.25"
         k2="0.25"
         k3="0.75"
         id="feComposite1404"
         k4="0" />
    </filter>
    <radialGradient
       inkscape:collect="always"
       xlink:href="#linearGradient2246-6"
       id="radialGradient2255"
       cx="1111.4908"
       cy="155.37131"
       fx="1111.4908"
       fy="155.37131"
       r="541.30908"
       gradientTransform="matrix(1,0,0,0.06383554,0,145.45309)"
       gradientUnits="userSpaceOnUse" />
  </defs>
  <metadata
     id="metadata5">
    <rdf:RDF>
      <cc:Work
         rdf:about="">
        <dc:format>image/svg+xml</dc:format>
        <dc:type
           rdf:resource="http://purl.org/dc/dcmitype/StillImage" />
        <dc:title></dc:title>
      </cc:Work>
    </rdf:RDF>
  </metadata>
  <g
     inkscape:label="Layer 1"
     inkscape:groupmode="layer"
     id="layer1"
     transform="translate(-55.474779,-44.968803)">
    <path
       style="fill:#ff6600;stroke:none;stroke-width:0.77425677;stroke-miterlimit:4;stroke-dasharray:none;stroke-opacity:1"
       d="m 242.65625,46.888672 c -1.13806,0.822867 -2.27583,1.646126 -3.41406,2.46875 0.84819,0.493006 1.68846,1.154288 2.53906,1.550781 1.46812,-0.785774 2.93609,-1.571822 4.4043,-2.357422 -0.74026,-0.01511 -1.48047,-0.03264 -2.22071,-0.04883 -0.18623,-0.473747 0.2101,-1.466453 -0.49484,-1.477313 -0.26385,-0.0249 -0.56616,-0.174032 -0.81375,-0.135968 z m 10.04297,0.623047 c -2.12232,0.684487 -4.24527,1.367016 -6.36719,2.052734 0.46272,0.214163 0.88436,0.834582 1.37315,0.792605 1.67383,-0.71789 3.34737,-1.436469 5.02138,-2.153933 -0.0445,-0.171705 0.31177,-0.873016 -0.0273,-0.691406 z m -8.36719,2.421875 c -0.77162,1.575316 -1.76435,3.078633 -2.62019,4.626517 -1.36419,2.354984 -2.72836,4.709986 -4.0927,7.064889 -2.29689,0.604818 -4.54493,1.238523 -6.89551,1.556762 -1.05383,-0.0083 0.16479,0.506834 0.48073,0.811586 0.8386,0.360234 -0.46159,0.339833 -0.79119,0.524767 -1.33166,0.323299 -2.63697,0.824916 -4.02896,0.74012 -0.68346,0.04771 -1.40515,0.01083 -2.06585,0.108953 -0.18697,0.381866 -1.30352,1.026372 -0.40729,1.104024 0.92023,0.2936 1.82633,0.676118 2.81386,0.549033 3.00049,0.121093 5.9814,-0.335791 8.9718,-0.512366 2.07114,-0.164084 4.14228,-0.328169 6.21343,-0.492254 2.05886,1.994436 4.20323,3.916088 6.20854,5.956141 0.39378,0.320086 0.56977,1.391028 1.12381,1.154743 0.88591,-0.415113 1.89535,-0.737515 2.70671,-1.20854 0.18945,-1.415365 0.37891,-2.830729 0.56836,-4.246094 0.59375,0.136054 1.18748,0.272219 1.78125,0.408203 -0.23997,-0.753429 -0.26128,-1.625827 -0.96646,-2.12284 -0.4024,-0.749569 -0.77116,-0.546431 -1.12126,0.117773 -0.65974,0.882566 -1.49823,1.66007 -1.78473,2.759937 -0.23327,0.571944 -0.46655,1.143889 -0.69982,1.715833 -0.41659,-0.371688 -1.40186,-0.44989 -1.12064,-1.181705 0.0839,-0.961565 0.16752,-1.923147 0.2515,-2.884701 -1.70099,-0.836979 -3.31394,-1.879431 -5.16214,-2.371506 -0.9134,-0.312363 -1.8268,-0.624725 -2.7402,-0.937088 0.61034,-1.103975 1.2591,-2.32507 2.50102,-2.810039 0.60999,-0.411245 1.51574,-0.509977 1.76934,-1.29539 0.3299,-0.489766 1.0424,0.433081 1.53516,0.544598 0.57762,0.429602 1.32358,-0.048 1.97733,-0.03068 0.35173,-0.179181 1.58241,0.0473 1.30657,-0.422873 -0.41686,-0.539656 -0.59078,-1.357877 -1.35276,-1.502719 -0.61404,-0.278152 -1.22809,-0.556304 -1.84213,-0.834456 0.11793,-1.47791 0.34698,-2.996103 0.39648,-4.449219 -0.96592,-0.879737 -1.92851,-1.763151 -2.89648,-2.640625 l -0.009,0.09961 z m 19.43945,0.285156 c -0.85444,0.180867 -1.71196,0.508855 -2.56454,0.600206 -0.6888,-0.13936 -1.39171,-0.547307 -2.07237,-0.529736 -0.75909,0.323417 -1.51786,0.6476 -2.27715,0.970546 0.34092,0.361547 0.37383,1.308651 1.00601,1.125613 0.73723,-0.0082 1.55919,-0.234936 2.2437,-0.10704 0.50838,0.518048 1.3283,0.581799 1.96123,0.916973 0.75316,-0.358875 1.67225,-0.483826 2.12748,-1.263898 0.45186,-0.503638 0.90196,-1.008858 1.35494,-1.511492 -0.59268,-0.06686 -1.1868,-0.146975 -1.7793,-0.201172 z m -10.03125,2.263672 c -0.18504,0.158306 -0.0156,1.266273 0.5839,1.024584 2.0163,0.183973 4.03267,0.367082 6.04892,0.551588 -0.24878,-0.459144 -0.0761,-1.443277 -0.82712,-1.272138 -1.93525,-0.09478 -3.87006,-0.239083 -5.8057,-0.304034 z m 7.16211,1.689453 c -1.56409,1.125178 -3.16394,2.266776 -4.79486,3.309472 -0.93756,0.492461 -1.87478,0.985577 -2.81256,1.477637 0.61302,0.489565 1.14649,1.126825 1.80581,1.530861 0.42024,0.242346 1.51165,0.119233 1.50416,0.594479 -0.22156,0.66859 -0.44551,1.336393 -0.66544,2.00552 2.57471,-0.888343 4.8924,-2.357095 7.36673,-3.463799 0.52189,-0.180803 1.43128,-0.218917 0.70471,-0.85649 -1.00972,-1.588814 -2.02279,-3.175514 -3.03042,-4.765649 l -0.0422,0.09067 z m -38.54882,0.09766 c -1.20317,1.009064 -2.40599,2.018544 -3.60938,3.027344 1.08408,0.122208 2.17542,0.532577 3.25329,0.159446 0.70788,-0.176239 1.41584,-0.352133 2.12366,-0.528587 -0.432,-0.864072 -0.76781,-1.86903 -1.25976,-2.648437 -0.16099,0.01397 -0.36579,-0.0763 -0.50781,-0.0098 z m 8.19921,0.708985 c -0.86273,0.401834 -1.77203,0.755306 -2.60742,1.185546 -0.36854,0.698539 -0.73666,1.397304 -1.10547,2.095704 1.1839,0.432539 2.37375,0.960429 3.55469,1.333984 0.89125,-0.425832 1.78269,-0.851282 2.67383,-1.277344 -0.81768,-0.739399 -1.72595,-1.41259 -2.48428,-2.196713 -0.43497,-0.225095 0.52542,-1.458043 -0.0314,-1.141177 z m -5.62304,1.449218 c -0.37072,1.078037 -0.5648,2.23467 -0.86914,3.341797 0.82483,-0.494849 1.64976,-0.989549 2.47461,-1.484375 -0.50958,-0.657846 -1.01835,-1.316317 -1.52735,-1.974609 l -0.0555,0.0832 z m 36.70312,0.587891 c -0.0953,0.506968 0.441,1.574895 -0.42666,1.396002 -1.23343,0.08089 -2.46686,0.16178 -3.70029,0.24267 1.18544,-0.670929 2.47472,-1.143537 3.70312,-1.732422 0.14128,0.03125 0.28256,0.0625 0.42383,0.09375 z m -14.92383,2.810547 c -1.51754,1.125698 -3.03537,2.251014 -4.55273,3.376953 0.57445,0.195859 1.15725,0.497551 1.72852,0.626953 0.68065,-0.255482 1.29258,-1.033656 2.05594,-0.660177 0.72261,0.135131 1.49394,0.43584 2.1882,0.47463 0.62867,-0.678602 1.25931,-1.355383 1.88671,-2.035156 -0.66276,-0.122104 -1.36924,-0.114847 -2.00585,-0.314453 0.052,-0.411207 0.93152,-1.306395 0.40413,-1.37782 -0.5647,-0.01936 -1.1517,-0.113339 -1.70492,-0.09093 z m -20.05859,0.002 c -1.361,1.257147 -2.61592,2.698893 -3.9375,4.025391 0.85393,0.191429 1.74805,0.540834 2.57617,0.640625 0.45094,-0.289785 0.85985,-1.224362 1.33922,-1.07801 0.66354,0.518946 1.32773,1.037064 1.99086,1.556525 -0.0294,-0.72192 0.17418,-1.507499 0.0142,-2.193414 -0.63849,-0.988709 -1.27456,-1.979015 -1.91455,-2.966742 z m 23.47266,0.148437 c 0.14095,0.491793 -0.32341,1.390389 0.34373,1.528485 1.25374,0.518253 2.50886,1.033203 3.76174,1.553547 -0.12545,-0.898734 -0.25384,-1.797082 -0.38282,-2.695313 -1.24093,-0.166965 -2.48185,-0.334015 -3.72265,-0.501953 v 0.1 z m 0.74609,3.1875 c -0.94835,0.465941 -1.8985,0.928223 -2.8457,1.396485 0.56219,0.270365 1.11233,0.621087 1.67968,0.849609 1.18813,-0.288507 2.37645,-0.576232 3.56446,-0.865234 -0.49626,-0.393035 -0.87866,-1.028663 -1.44112,-1.285077 -0.31634,-0.02104 -0.64679,-0.104658 -0.95732,-0.09578 z"
       id="path3691"
       inkscape:connector-curvature="0" />
    <flowRoot
       xml:space="preserve"
       id="flowRoot4586"
       style="font-style:normal;font-variant:normal;font-weight:normal;font-stretch:normal;font-size:40px;line-height:1.25;font-family:FreeMono;-inkscape-font-specification:FreeMono;letter-spacing:48.40016937px;word-spacing:48.40016937px;fill:#000000;fill-opacity:1;stroke:none"
       transform="matrix(0.26458333,0,0,0.26458333,-0.82857779,47.139531)"><flowRegion
         id="flowRegion4588"
         style="font-style:normal;font-variant:normal;font-weight:normal;font-stretch:normal;font-family:FreeMono;-inkscape-font-specification:FreeMono;letter-spacing:48.40016937px;word-spacing:48.40016937px"><rect
           id="rect4590"
           width="172.85718"
           height="87.142845"
           x="615.71429"
           y="439.69727"
           style="font-style:normal;font-variant:normal;font-weight:normal;font-stretch:normal;font-family:FreeMono;-inkscape-font-specification:FreeMono;letter-spacing:48.40016937px;word-spacing:48.40016937px" /></flowRegion><flowPara
         id="flowPara4592"
         style="font-style:normal;font-variant:normal;font-weight:normal;font-stretch:normal;font-size:74.66666412px;font-family:FreeMono;-inkscape-font-specification:FreeMono;letter-spacing:48.40016937px;word-spacing:48.40016937px">sco</flowPara></flowRoot>    <text
       xml:space="preserve"
       style="font-style:normal;font-weight:normal;font-size:10.58333302px;line-height:1.25;font-family:sans-serif;letter-spacing:26.45833206px;word-spacing:26.45833206px;fill:#000000;fill-opacity:1;stroke:none;stroke-width:0.26458332"
       x="46.59478"
       y="229.14827"
       id="text2202"><tspan
         sodipodi:role="line"
         id="tspan2200"
         x="46.59478"
         y="238.51204"
         style="stroke-width:0.26458332" /></text>
    <path
       style="opacity:1;fill:#ff6600;fill-opacity:1;stroke:none;stroke-width:0.5145697;stroke-miterlimit:4;stroke-dasharray:none;stroke-opacity:1"
       d="m 135.62109,84.064453 c -3.87937,3.031782 -7.76274,6.110179 -11.55468,9.269531 -3.87447,10.861406 -7.80141,21.711796 -11.0625,32.775396 0.0472,1.07802 0.65682,2.03633 0.83683,3.09274 0.0131,0.33979 0.44333,0.43945 0.55574,0.0908 2.08106,-2.50133 2.84754,-5.7108 4.09198,-8.64244 2.50835,-6.50468 5.0284,-13.00971 8.13068,-19.26122 1.59831,-3.399302 3.19661,-6.798603 4.79492,-10.197904 1.54623,-1.057291 3.09245,-2.114583 4.63867,-3.171875 1.02605,0.446615 2.05209,0.893229 3.07813,1.339844 -1.8391,2.085342 -3.80798,4.079745 -5.53073,6.253222 -1.59901,4.067986 -3.19902,8.135583 -4.7974,12.203813 1.42754,2.03716 2.85044,4.07761 4.27735,6.11523 2.54389,-0.87975 5.2497,-1.39442 7.67187,-2.55664 0.64584,-1.35286 1.29167,-2.70573 1.9375,-4.05859 1.88889,5.70057 3.70011,11.43946 5.72071,17.08789 1.39453,1.18554 2.78906,2.37109 4.18359,3.55664 -0.0872,2.31966 -0.17448,4.63932 -0.26172,6.95898 -2.27337,3.1176 -4.71297,6.13902 -6.79492,9.37696 0.0911,1.66406 0.18228,3.32812 0.27344,4.99218 1.88255,-0.85624 3.8882,-1.48998 5.66992,-2.53515 1.90963,-3.83467 4.03374,-7.58699 5.74609,-11.50391 -0.69965,-3.25355 -1.35605,-6.52278 -2.14062,-9.75391 -2.42318,-3.09505 -4.84636,-6.1901 -7.26953,-9.28515 -0.7476,-3.3679 -1.40212,-6.7622 -1.33528,-10.22808 -0.24952,-5.22115 -0.326,-10.473582 -0.78386,-15.67036 -1.75865,-1.93078 -3.3607,-4.034666 -5.28321,-5.791016 -1.59808,-0.146008 -3.17854,-0.553581 -4.79297,-0.457031 z M 96.441406,97.382812 c -3.384134,2.938898 -6.803153,5.852668 -10.091797,8.892578 -2.001564,5.90172 -4.242622,11.72829 -5.996296,17.70744 -1.766652,8.4529 -3.737749,16.86777 -5.257601,25.36908 -1.360029,9.62163 -2.720058,19.24326 -4.080087,28.86489 -4.062248,4.43122 -8.118204,8.88471 -12.507813,12.99023 -0.25889,0.73367 0.633519,1.13704 0.972746,1.6452 0.993873,0.92782 2.472872,0.56914 3.692463,0.85209 4.394845,0.47159 8.778121,1.12802 13.192785,1.36466 6.394907,-0.31788 12.800754,-0.48378 19.179116,-1.07093 -0.57769,0.67383 -1.254122,1.54567 -1.025391,2.48047 0.784113,0.81741 1.995592,0.9153 2.936453,1.48723 2.339366,1.02587 4.675216,2.07088 7.034246,3.04402 6.85913,-0.21074 13.73371,-0.12144 20.58019,-0.61462 5.21238,-0.71076 10.45899,-1.29394 15.63661,-2.18226 2.28988,-2.22899 4.58361,-4.4542 6.87109,-6.68555 -0.32988,-5.08882 -0.59065,-10.19592 -0.24672,-15.29142 0.21342,-7.34683 0.70518,-14.70512 0.33155,-22.05273 -0.15417,-1.08053 -0.42055,-2.14169 -0.61217,-3.21639 -0.53325,0.75681 -1.97126,0.36637 -2.14844,1.44922 -0.0584,4.85483 -0.0189,9.7178 -0.44821,14.55817 -0.32686,8.39162 -0.75238,16.7789 -1.12796,25.16839 -3.158,1.48325 -6.26136,3.12488 -9.46111,4.49285 -6.60548,0.45517 -13.22523,0.87574 -19.84942,0.66393 -4.09196,-0.0524 -8.19784,0.0739 -12.27952,-0.19875 -0.70501,-0.20802 -1.41002,-0.41603 -2.115026,-0.62405 3.719716,-8.98979 7.592356,-17.92393 11.136296,-26.98057 0.7346,-3.23261 1.37986,-6.51311 1.33077,-9.84308 0.0493,-1.04186 0.0991,-2.0837 0.14817,-3.12557 -0.69127,-0.0457 -1.24966,-1.0686 -1.96777,-0.5497 -0.73584,1.48568 -0.98282,3.21991 -1.25466,4.85948 -0.52066,3.63189 -0.98254,7.32999 -1.65007,10.90291 -0.27662,1.12119 -0.76731,2.17218 -1.19977,3.23849 0.0321,-6.45276 0.0647,-12.90811 0.0605,-19.35938 -0.80347,-2.09372 -1.60628,-4.18769 -2.41016,-6.28125 -1.23898,0.90113 -0.99628,2.58502 -1.16529,3.91445 -0.064,4.51809 0.26763,9.02963 0.33173,13.54625 0.14084,3.93454 0.15251,7.88955 0.47973,11.80757 0.33535,0.87504 0.70944,1.95609 0.0876,2.79504 -1.12089,2.75169 -2.24177,5.50337 -3.36266,8.25505 -4.049846,1.09464 -8.29885,0.81394 -12.44977,1.16431 -5.021465,0.25183 -10.044067,0.57884 -15.069344,0.69017 -2.283994,-0.29264 -4.567989,-0.58528 -6.851983,-0.87792 -0.136658,-0.46797 -0.408682,-1.16434 0.219587,-1.39665 1.086326,-0.80094 2.215192,-1.56126 3.221819,-2.45686 2.161922,-5.2118 4.572461,-10.32915 6.500344,-15.62997 1.237164,-7.52184 2.459108,-15.05721 3.030903,-22.66466 0.459874,-4.44261 1.781584,-8.73212 2.696165,-13.10044 1.100009,-4.74304 2.101685,-9.54501 3.514179,-14.18459 1.576371,-4.83543 3.152742,-9.67085 4.729112,-14.50628 2.272136,-1.83854 4.544271,-3.67708 6.816407,-5.51563 1.18164,0.82032 2.363281,1.64063 3.544921,2.46094 -1.502242,0.8557 -3.074982,1.62279 -4.482421,2.6211 -2.083954,4.37175 -4.168152,8.7434 -6.251953,13.11523 0.62349,1.67225 1.124363,3.40828 1.90039,5.00977 1.101729,0.7128 2.066488,1.67544 3.294922,2.16211 1.933149,-0.31689 3.877198,-0.58781 5.785152,-1.02149 1.14736,-0.71355 1.84975,-1.93508 2.14643,-3.22678 0.21812,-0.59042 0.43624,-1.18084 0.65436,-1.77127 1.16325,3.79175 2.61902,7.51513 3.47663,11.38282 0.21352,2.41015 0.42704,4.82031 0.64055,7.23046 -0.96331,0.33093 -1.76934,1.12812 -1.9391,2.14992 -0.58195,1.49573 -1.45832,2.95974 -1.75621,4.54149 1.23764,1.972 2.47522,3.94404 3.71289,5.91602 1.09114,-0.75296 2.48518,-1.12043 3.36524,-2.14258 0.30645,-2.58773 1.12094,-5.15757 1.0252,-7.79157 -0.19052,-1.30981 -0.39274,-2.61781 -0.61114,-3.92328 0.59824,0.59642 1.19701,1.19232 1.79492,1.78907 0.61346,-1.85048 1.47088,-3.73955 1.17578,-5.73711 -0.0529,-0.83217 0.14701,-1.78712 -0.24865,-2.53848 -0.7041,-0.70058 -1.40925,-1.40011 -2.11268,-2.10137 -0.32294,2.2153 -0.64301,4.43103 -0.96484,6.64649 -1.19269,-6.34885 -2.79062,-12.62141 -3.9383,-18.97495 0.0745,-1.89259 0.87372,-3.8083 0.23488,-5.68776 -0.67834,-2.76711 -1.17615,-5.60236 -2.05635,-8.30213 -2.81133,-1.88327 -5.621597,-3.768131 -8.43359,-5.650396 z m 47.617184,19.416018 c -0.40699,0.46164 -0.60331,1.18759 -0.71289,1.8164 -0.1497,1.48372 -0.0581,2.98038 -0.20729,4.46524 -0.0413,1.10054 -0.12435,2.21651 -0.0329,3.31015 0.68579,1.0669 1.36955,2.13512 2.05664,3.20118 0.40782,-1.5218 1.46774,-3.04584 0.91263,-4.6714 -0.362,-2.61375 -0.38388,-5.39417 -1.75299,-7.73329 -0.0612,-0.1273 -0.0869,-0.38807 -0.26316,-0.38828 z m -19.48047,5.60937 c -0.51258,0.15392 0.0752,0.68642 0.31446,0.84961 1.87875,1.85296 4.37272,2.89712 6.49109,4.43771 2.29992,1.4029 4.64449,2.83913 6.39521,4.92601 0.67071,0.68736 1.34142,1.37471 2.01214,2.06206 -0.93721,1.59721 -1.46968,3.47845 -2.78144,4.82548 -1.01572,0.6803 -2.12622,1.2574 -3.02325,2.08859 -1.03069,3.01472 -2.31822,5.9706 -3.09766,9.05273 0.6347,1.45641 1.26996,2.91258 1.9043,4.36914 1.55114,-0.27904 3.1803,-0.2436 4.67187,-0.76953 1.02008,-1.14802 2.18513,-2.40748 2.18927,-4.04189 1.02638,-5.17608 2.05055,-10.35263 3.07831,-15.52842 -2.36001,-2.92431 -4.67654,-5.89654 -7.12304,-8.74024 -3.42462,-1.42843 -6.94756,-2.64569 -10.57339,-3.45154 -0.14603,-0.0494 -0.30234,-0.0956 -0.45787,-0.0797 z m -21.01171,1.8418 c -0.93965,0.40096 -1.14131,1.66592 -0.99545,2.58692 0.51556,3.322 0.79689,6.69094 1.34896,10.00683 0.65924,0.92811 1.31546,1.85838 1.97656,2.78516 0.30562,-1.19763 1.54261,-2.31175 0.9668,-3.61914 -0.87114,-3.86197 -1.7419,-7.72403 -2.61328,-11.58594 -0.2589,0.0837 -0.43794,-0.17184 -0.68359,-0.17383 z m 43.78125,3.29492 c -0.94307,1.08576 -1.2272,2.53176 -1.34066,3.92532 -0.19175,2.10845 -0.83547,4.20517 -0.70427,6.32273 0.62645,0.73946 1.25178,1.47987 1.87891,2.21875 0.50422,-1.90784 1.27381,-3.87903 0.81586,-5.87723 -0.16264,-2.2805 -0.32478,-4.56104 -0.48773,-6.84152 -0.054,0.084 -0.10808,0.16797 -0.16211,0.25195 z m -61.623051,4.82031 c -0.877856,0.84172 -1.128987,2.15361 -1.767578,3.17969 2.780965,0.42711 5.559422,0.8732 8.351563,1.22266 1.710286,1.8737 3.420573,3.74739 5.130859,5.62109 -0.752603,0.79222 -1.690929,1.54296 -2.841354,1.51012 -0.957103,0.19664 -1.993769,0.24362 -2.871537,0.70863 -0.623697,0.97526 -1.247395,1.95052 -1.871093,2.92578 -1.118299,-1.29776 -2.481021,-2.39908 -3.949219,-3.25781 -0.697839,-0.0148 -1.756134,0.43274 -1.599609,1.26953 0.240932,0.77609 0.915847,1.31967 1.20507,2.0804 1.417155,2.5254 2.697064,5.14346 3.910227,7.76305 0.09206,0.97962 0.07713,2.24473 1.102734,2.75111 0.860236,0.69294 1.67685,1.43554 2.51439,2.15544 1.417612,-1.58663 3.440177,-2.84447 3.931516,-5.05642 1.442173,-3.8477 2.883753,-7.69563 4.326302,-11.54319 -1.23695,-2.41138 -2.200438,-4.98975 -3.644536,-7.27734 -3.46203,-1.28952 -6.811818,-2.91097 -10.366151,-3.92729 -0.517412,-0.0662 -1.037327,-0.17931 -1.561584,-0.12545 z m 36.136721,1.62305 c -0.90381,0.34495 -0.66264,1.46925 -0.47768,2.19251 0.21357,0.6722 0.90965,1.10603 1.30236,1.68956 2.77071,3.22223 5.5412,6.44465 8.31204,9.66676 -0.005,-0.98271 1.50667,-1.35343 1.14065,-2.39707 -1.74371,-2.26967 -3.47375,-4.58269 -5.33168,-6.7735 -1.0465,-1.34637 -2.39004,-2.39113 -3.7142,-3.44786 -0.41086,-0.27867 -0.80791,-0.76791 -1.23149,-0.9304 z M 74.46875,178.0957 c -1.526535,1.51521 -2.18051,3.67916 -3.250174,5.51645 -0.469384,0.91963 -0.938455,1.83941 -1.408029,2.75894 1.1792,-0.30383 2.732787,0.3967 3.609375,-0.72851 0.656497,-0.79543 2.230245,-0.26829 2.548828,-1.45313 0.121049,-1.22475 0.0086,-2.4607 0.117148,-3.68896 -0.0889,-0.5313 0.253315,-1.34121 -0.104014,-1.69904 -0.503742,-0.21578 -0.894416,-0.82601 -1.513134,-0.70575 z m 35.66797,3.18555 c -0.52468,0.17599 -0.75257,0.86147 -1.13785,1.25257 -1.18264,1.65145 -2.29818,3.36649 -3.25946,5.15298 -0.56066,1.30933 -1.03854,2.65333 -1.55777,3.98117 0.92325,-0.10693 1.99168,0.84047 2.77539,0.006 0.26458,-0.18793 0.38584,-0.97237 0.77358,-0.54772 1.0749,0.77696 2.31253,-0.18182 3.39833,-0.41282 0.39708,-0.0502 0.85402,-0.46902 0.52536,-0.86173 -0.36764,-0.91544 -0.73682,-1.83027 -1.10352,-2.74609 -0.28599,0.13961 -0.65511,0.88807 -0.54267,0.14922 0.0318,-1.84055 0.91061,-3.50549 1.04462,-5.33672 -0.0841,-0.41223 -0.50952,-0.67628 -0.91601,-0.63672 z"
       id="path2214"
       inkscape:connector-curvature="0" />
    <path
       style="fill:#ff6600;stroke:none;stroke-width:0.77425677;stroke-miterlimit:4;stroke-dasharray:none;stroke-opacity:1"
       d="m 201.93555,69.964844 c -4.6783,2.313803 -9.40621,4.575639 -14.00196,7.046875 -3.76811,6.102495 -7.53838,12.206787 -11.26953,18.330078 -3.30036,14.353743 -6.34088,28.780283 -8.46018,43.360603 -1.23026,8.15453 -2.28108,16.3473 -3.77224,24.4519 -0.48169,2.44017 -1.2431,4.85 -2.59435,6.9562 -4.51845,8.317 -9.12825,16.58695 -13.46425,25.00117 -0.54229,1.08253 -1.05856,2.17797 -1.55859,3.28091 1.10925,1.00217 1.95958,2.33175 3.28516,3.0664 3.61975,-0.095 7.33009,0.14289 10.8297,-0.96468 6.41177,-1.43958 12.77719,-3.18608 19.3351,-3.80151 5.35035,-0.6828 10.71582,-1.31889 16.04418,-2.12638 3.22234,-2.51693 6.72032,-4.72643 9.73047,-7.48633 0.91351,-6.87945 2.0733,-13.75404 2.14079,-20.71142 0.34632,-7.75198 0.32148,-15.51351 0.41781,-23.271 0.50083,0.72996 1.23206,1.58704 2.22694,1.36448 1.40156,0.0176 2.80317,0.0322 4.2047,0.0515 1.5289,-4.2923 2.7825,-8.68256 3.59747,-13.16763 0.26436,-1.04426 0.34497,-2.17974 0.78615,-3.15258 1.48845,-1.43193 3.11122,-2.7517 4.43669,-4.33604 0.14473,-1.179 0.80378,-2.53751 -0.0363,-3.60734 -0.44871,-0.86499 -0.8032,-1.90958 -1.67467,-2.43172 -1.61523,-0.0462 -3.23047,-0.0924 -4.8457,-0.13867 -1.11484,-1.01965 -2.66508,-1.41944 -3.81637,-2.34327 -1.92579,-3.83415 -3.85159,-7.66829 -5.77738,-11.50244 1.52723,-6.182859 3.42965,-12.309757 4.06741,-18.671785 0.22197,-1.659852 0.45745,-3.325028 0.60056,-4.99032 -0.64771,-1.780208 -1.24968,-3.58311 -1.97657,-5.330078 -1.67623,-1.560138 -3.22255,-3.287116 -5.04687,-4.664063 -1.13376,-0.09579 -2.26803,-0.246504 -3.4082,-0.21289 z m -0.16797,3.714844 c 0.6687,0.171773 1.17407,0.781657 1.78795,1.109553 0.24606,0.349422 1.54856,0.663051 1.01346,1.038938 -1.56832,1.272423 -3.23729,2.460659 -4.70435,3.834055 -2.57934,4.780404 -5.16103,9.562767 -7.71034,14.357297 -0.27385,1.6718 -0.64304,3.337803 -0.77735,5.025391 0.55564,1.546348 1.11405,3.091718 1.66797,4.638668 2.85202,-0.0962 5.83074,0.1689 8.51936,-0.98045 1.00794,-0.31676 2.03527,-0.58801 3.00017,-1.02345 0.28798,3.27638 0.65962,6.56117 0.97266,9.84179 -0.67547,-0.19838 -1.50689,0.31991 -1.40962,1.0712 -0.33239,1.72302 -0.47485,3.56838 0.21013,5.22634 0.29939,1.19236 0.59513,2.38566 0.89676,3.57746 0.53883,-0.80499 1.98223,-0.38232 2.24739,-1.4465 0.0319,-1.76714 0.0624,-3.54804 -0.003,-5.31912 1.3034,1.23559 2.89327,2.23833 3.89747,3.74629 0.14966,0.52586 0.77571,1.27137 0.0439,1.64043 -0.93151,0.89263 -1.81763,2.10407 -3.23594,2.06769 -2.77257,0.38678 -5.57514,0.54648 -8.36367,0.71161 -0.92679,0.49542 -0.80437,1.71718 -1.34467,2.50122 -0.74884,1.58381 -1.15199,3.34866 -0.95645,5.10151 -0.006,5.56016 -0.0128,11.12031 -0.0192,16.68047 -1.96837,-1.25798 -3.56768,-2.95001 -5.02953,-4.75592 -3.79798,-4.30152 -7.59693,-8.60218 -11.3943,-12.90424 -0.68131,1.36898 -1.36311,2.73772 -2.04297,4.10742 1.75346,0.87791 3.40648,2.06975 4.51354,3.69489 3.68209,4.21904 7.35576,8.44729 11.0431,12.66058 1.28723,0.82273 2.57354,1.64692 3.86133,2.46875 1.3361,-1.36194 2.75811,-2.65549 3.97071,-4.12304 0.78544,-3.35311 1.54426,-6.7128 2.39257,-10.05079 0.63046,0.78169 1.50439,1.67446 1.17691,2.77361 -0.72538,10.33941 -1.3071,20.68839 -1.86879,31.03741 -0.37648,4.88729 -0.82719,9.76842 -1.24952,14.65187 -1.66146,1.29297 -3.32292,2.58594 -4.98438,3.87891 -8.63364,1.20111 -17.27798,2.36043 -25.86925,3.83365 -5.43177,1.19203 -10.80842,2.64007 -16.21217,3.93721 -0.81402,0.29395 -1.68864,0.21391 -2.47323,-0.14969 -0.89585,-0.28909 -1.79169,-0.57817 -2.68754,-0.86726 1.15182,-1.75884 3.14782,-2.61001 4.65643,-4.00817 0.75515,-0.58322 1.5103,-1.16643 2.26545,-1.74965 0.80487,0.34059 0.47489,1.80441 1.48633,1.86719 0.86516,-0.10899 0.76533,-1.2347 0.98181,-1.8505 0.44627,-1.78739 0.89829,-3.67021 1.38538,-5.38778 0.56795,0.70881 1.51945,0.12245 2.21968,-0.003 0.59463,-0.10258 0.9463,0.62214 1.56767,0.55144 0.58832,0.11905 1.05529,-0.32731 1.24975,-0.83157 0.5679,-0.22307 1.15096,0.47099 1.75977,0.16406 0.78511,-0.37411 0.59774,-1.39333 0.73437,-2.10742 0.12526,-0.84587 -0.52858,-1.72377 -1.42614,-1.64018 -0.50935,0.12172 -0.037,-0.5456 -0.1201,-0.85432 0.10228,-0.52114 -0.45,-1.04681 -0.92055,-0.67152 -0.59065,0.5151 -0.99105,1.21227 -1.44922,1.84571 0.17951,-0.80943 0.54135,-1.6754 0.39205,-2.49518 -0.47604,-0.83737 -0.94977,-1.67606 -1.42721,-2.51264 -0.19324,0.21698 -0.4731,0.91613 -0.48052,0.84911 2.66251,-9.52524 5.70048,-19.01222 6.83282,-28.87669 0.9964,-6.7161 1.79251,-13.47223 3.09206,-20.13134 2.30862,-10.49615 4.73153,-20.96697 7.08188,-31.453916 0.47085,-1.944564 0.82903,-3.944502 1.36955,-5.854825 3.81158,-4.544742 7.40234,-9.279826 11.42006,-13.643054 2.38754,-1.651457 4.55965,-3.867921 7.50047,-4.488763 0.31615,-0.102625 0.61197,-0.285629 0.94931,-0.310674 z m -12.86719,41.242192 c 0.29899,1.24969 -0.0201,2.9904 1.37065,3.66939 1.57601,1.06183 3.10948,2.19578 4.72701,3.18998 1.59505,0.21942 3.19012,0.43867 4.78515,0.6582 -0.48675,-0.94628 -0.0891,-2.24249 -0.96093,-3.00195 0.11236,-0.61881 0.13391,-1.57009 -0.66645,-1.70318 -1.66996,-0.78966 -3.44745,-1.75336 -5.35699,-1.51752 -0.27242,0.0186 -0.27018,0.6653 -0.52344,0.38867 -1.11687,-0.65851 -2.27613,-1.24051 -3.40234,-1.88281 0.009,0.0664 0.0182,0.13281 0.0273,0.19922 z m 30.77149,9.18359 c -2.51652,0.36309 -5.0467,0.82631 -7.55469,1.12695 2.71814,-0.87037 5.41153,-1.8376 8.12109,-2.74219 -0.1888,0.53842 -0.3776,1.07683 -0.5664,1.61524 z m -10.80274,8.30859 c 0.54807,-0.0347 1.2897,-0.11235 1.46271,0.57025 0.26678,1.19755 -0.0703,2.52724 -0.0621,3.77615 -0.0645,1.10068 -0.12903,2.20136 -0.19354,3.30204 -1.49202,-1.44063 -2.827,-3.03507 -4.23437,-4.55859 0.91773,-1.03574 1.83844,-2.06882 2.76172,-3.09961 0.0885,0.003 0.17708,0.007 0.26562,0.01 z"
       id="path1241"
       inkscape:connector-curvature="0" />
  </g>
</svg>
